# xmcd CD database file
#
# Track frame offsets:
#	150
#	11780
#	23367
#	34815
#	45902
#	56970
#	68482
#	79980
#	91625
#	103270
#	114672
#	126077
#	137612
#	149092
#	161117
#	173105
#	183507
#	193927
#	205310
#	216695
#	221497
#	226325
#	231092
#	235967
#	240765
#	245577
#	250430
#	255200
#	260007
#	264820
#	267367
#	269900
#	272497
#	275087
#	277607
#	280227
#	282795
#	285327
#	287867
#	290422
#	292172
#	293967
#	295740
#	297507
#	299325
#	301155
#	302955
#	304700
#	306502
#	308307
#	309710
#	311102
#	312577
#	314020
#	315410
#	316860
#	318290
#	319650
#	321107
#	322512
#	323557
#	324607
#	325595
#	326692
#	327695
#	328840
#	329892
#	330865
#	331942
#
# Disc length: 4439 seconds
#
# Revision: 0
# Processed by: cddbd v1.4PL0 Copyright (c) Steve Scherf et al.
# Submitted via: CDex 1.50
#
DISCID=3b115545
DTITLE=Contemporary Jazz (OM-CJ26) - Easy Going
DYEAR=1997
DGENRE=Jazz
TTITLE0=Easy Going
TTITLE1=Easy Going
TTITLE2=Easy Going
TTITLE3=Easy Going
TTITLE4=Easy Going
TTITLE5=Easy Going
TTITLE6=Easy Going
TTITLE7=Easy Going
TTITLE8=Easy Going
TTITLE9=Easy Going
TTITLE10=Easy Going
TTITLE11=Easy Going
TTITLE12=Easy Going
TTITLE13=Easy Going
TTITLE14=Easy Going
TTITLE15=Easy Going
TTITLE16=Easy Going
TTITLE17=Easy Going
TTITLE18=Easy Going
TTITLE19=Easy Going
TTITLE20=Easy Going
TTITLE21=Easy Going
TTITLE22=Easy Going
TTITLE23=Easy Going
TTITLE24=Easy Going
TTITLE25=Easy Going
TTITLE26=Easy Going
TTITLE27=Easy Going
TTITLE28=Easy Going
TTITLE29=Easy Going
TTITLE30=Easy Going
TTITLE31=Easy Going
TTITLE32=Easy Going
TTITLE33=Easy Going
TTITLE34=Easy Going
TTITLE35=Easy Going
TTITLE36=Easy Going
TTITLE37=Easy Going
TTITLE38=Easy Going
TTITLE39=Easy Going
TTITLE40=Easy Going
TTITLE41=Easy Going
TTITLE42=Easy Going
TTITLE43=Easy Going
TTITLE44=Easy Going
TTITLE45=Easy Going
TTITLE46=Easy Going
TTITLE47=Easy Going
TTITLE48=Easy Going
TTITLE49=Easy Going
TTITLE50=Easy Going
TTITLE51=Easy Going
TTITLE52=Easy Going
TTITLE53=Easy Going
TTITLE54=Easy Going
TTITLE55=Easy Going
TTITLE56=Easy Going
TTITLE57=Easy Going
TTITLE58=Easy Going
TTITLE59=Easy Going
TTITLE60=Easy Going
TTITLE61=Easy Going
TTITLE62=Easy Going
TTITLE63=Easy Going
TTITLE64=Easy Going
TTITLE65=Easy Going
TTITLE66=Easy Going
TTITLE67=Easy Going
TTITLE68=Easy Going
EXTD=YEAR: 1997
EXTT0=
EXTT1=
EXTT2=
EXTT3=
EXTT4=
EXTT5=
EXTT6=
EXTT7=
EXTT8=
EXTT9=
EXTT10=
EXTT11=
EXTT12=
EXTT13=
EXTT14=
EXTT15=
EXTT16=
EXTT17=
EXTT18=
EXTT19=
EXTT20=
EXTT21=
EXTT22=
EXTT23=
EXTT24=
EXTT25=
EXTT26=
EXTT27=
EXTT28=
EXTT29=
EXTT30=
EXTT31=
EXTT32=
EXTT33=
EXTT34=
EXTT35=
EXTT36=
EXTT37=
EXTT38=
EXTT39=
EXTT40=
EXTT41=
EXTT42=
EXTT43=
EXTT44=
EXTT45=
EXTT46=
EXTT47=
EXTT48=
EXTT49=
EXTT50=
EXTT51=
EXTT52=
EXTT53=
EXTT54=
EXTT55=
EXTT56=
EXTT57=
EXTT58=
EXTT59=
EXTT60=
EXTT61=
EXTT62=
EXTT63=
EXTT64=
EXTT65=
EXTT66=
EXTT67=
EXTT68=
PLAYORDER=
